<svg width="201" height="69" viewBox="0 0 201 69" fill="none" xmlns="http://www.w3.org/2000/svg">
<rect width="200.5" height="60.5" rx="5" fill="white"/>
<rect x="4" y="48" width="87" height="20.5" rx="5" fill="#EF5DA8"/>
<path d="M43.088 12.856V35H40.176V18.488L32.816 35H30.768L23.376 18.456V35H20.464V12.856H23.6L31.792 31.16L39.984 12.856H43.088ZM46.9385 26.168C46.9385 24.376 47.3012 22.808 48.0265 21.464C48.7518 20.0987 49.7438 19.0427 51.0025 18.296C52.2825 17.5493 53.7012 17.176 55.2585 17.176C56.7945 17.176 58.1278 17.5067 59.2585 18.168C60.3892 18.8293 61.2318 19.6613 61.7865 20.664V17.464H64.7305V35H61.7865V31.736C61.2105 32.76 60.3465 33.6133 59.1945 34.296C58.0638 34.9573 56.7412 35.288 55.2265 35.288C53.6692 35.288 52.2612 34.904 51.0025 34.136C49.7438 33.368 48.7518 32.2907 48.0265 30.904C47.3012 29.5173 46.9385 27.9387 46.9385 26.168ZM61.7865 26.2C61.7865 24.8773 61.5198 23.7253 60.9865 22.744C60.4532 21.7627 59.7278 21.016 58.8105 20.504C57.9145 19.9707 56.9225 19.704 55.8345 19.704C54.7465 19.704 53.7545 19.96 52.8585 20.472C51.9625 20.984 51.2478 21.7307 50.7145 22.712C50.1812 23.6933 49.9145 24.8453 49.9145 26.168C49.9145 27.512 50.1812 28.6853 50.7145 29.688C51.2478 30.6693 51.9625 31.4267 52.8585 31.96C53.7545 32.472 54.7465 32.728 55.8345 32.728C56.9225 32.728 57.9145 32.472 58.8105 31.96C59.7278 31.4267 60.4532 30.6693 60.9865 29.688C61.5198 28.6853 61.7865 27.5227 61.7865 26.2ZM78.1955 17.144C80.3288 17.144 82.0568 17.7947 83.3795 19.096C84.7022 20.376 85.3635 22.232 85.3635 24.664V35H82.4835V25.08C82.4835 23.3307 82.0462 21.9973 81.1715 21.08C80.2968 20.1413 79.1022 19.672 77.5875 19.672C76.0515 19.672 74.8248 20.152 73.9075 21.112C73.0115 22.072 72.5635 23.4693 72.5635 25.304V35H69.6515V17.464H72.5635V19.96C73.1395 19.064 73.9182 18.3707 74.8995 17.88C75.9022 17.3893 77.0008 17.144 78.1955 17.144ZM93.6723 19.864V30.2C93.6723 31.0533 93.8536 31.6613 94.2163 32.024C94.5789 32.3653 95.2083 32.536 96.1042 32.536H98.2483V35H95.6243C94.0029 35 92.7869 34.6267 91.9763 33.88C91.1656 33.1333 90.7603 31.9067 90.7603 30.2V19.864H88.4883V17.464H90.7603V13.048H93.6723V17.464H98.2483V19.864H93.6723ZM117.777 25.56C117.777 26.1147 117.745 26.7013 117.681 27.32H103.665C103.771 29.048 104.358 30.4027 105.425 31.384C106.513 32.344 107.825 32.824 109.361 32.824C110.619 32.824 111.665 32.536 112.497 31.96C113.35 31.3627 113.947 30.5733 114.289 29.592H117.425C116.955 31.2773 116.017 32.6533 114.609 33.72C113.201 34.7653 111.451 35.288 109.361 35.288C107.697 35.288 106.203 34.9147 104.881 34.168C103.579 33.4213 102.555 32.3653 101.809 31C101.062 29.6133 100.689 28.0133 100.689 26.2C100.689 24.3867 101.051 22.7973 101.777 21.432C102.502 20.0667 103.515 19.0213 104.817 18.296C106.139 17.5493 107.654 17.176 109.361 17.176C111.025 17.176 112.497 17.5387 113.777 18.264C115.057 18.9893 116.038 19.992 116.721 21.272C117.425 22.5307 117.777 23.96 117.777 25.56ZM114.769 24.952C114.769 23.8427 114.523 22.8933 114.033 22.104C113.542 21.2933 112.87 20.6853 112.017 20.28C111.185 19.8533 110.257 19.64 109.233 19.64C107.761 19.64 106.502 20.1093 105.457 21.048C104.433 21.9867 103.846 23.288 103.697 24.952H114.769ZM130.164 17.144C132.298 17.144 134.026 17.7947 135.348 19.096C136.671 20.376 137.332 22.232 137.332 24.664V35H134.452V25.08C134.452 23.3307 134.015 21.9973 133.14 21.08C132.266 20.1413 131.071 19.672 129.556 19.672C128.02 19.672 126.794 20.152 125.876 21.112C124.98 22.072 124.532 23.4693 124.532 25.304V35H121.62V17.464H124.532V19.96C125.108 19.064 125.887 18.3707 126.868 17.88C127.871 17.3893 128.97 17.144 130.164 17.144ZM141.001 26.168C141.001 24.376 141.364 22.808 142.089 21.464C142.814 20.0987 143.806 19.0427 145.065 18.296C146.345 17.5493 147.764 17.176 149.321 17.176C150.857 17.176 152.19 17.5067 153.321 18.168C154.452 18.8293 155.294 19.6613 155.849 20.664V17.464H158.793V35H155.849V31.736C155.273 32.76 154.409 33.6133 153.257 34.296C152.126 34.9573 150.804 35.288 149.289 35.288C147.732 35.288 146.324 34.904 145.065 34.136C143.806 33.368 142.814 32.2907 142.089 30.904C141.364 29.5173 141.001 27.9387 141.001 26.168ZM155.849 26.2C155.849 24.8773 155.582 23.7253 155.049 22.744C154.516 21.7627 153.79 21.016 152.873 20.504C151.977 19.9707 150.985 19.704 149.897 19.704C148.809 19.704 147.817 19.96 146.921 20.472C146.025 20.984 145.31 21.7307 144.777 22.712C144.244 23.6933 143.977 24.8453 143.977 26.168C143.977 27.512 144.244 28.6853 144.777 29.688C145.31 30.6693 146.025 31.4267 146.921 31.96C147.817 32.472 148.809 32.728 149.897 32.728C150.985 32.728 151.977 32.472 152.873 31.96C153.79 31.4267 154.516 30.6693 155.049 29.688C155.582 28.6853 155.849 27.5227 155.849 26.2ZM166.626 20.312C167.138 19.3093 167.863 18.5307 168.802 17.976C169.762 17.4213 170.925 17.144 172.29 17.144V20.152H171.522C168.258 20.152 166.626 21.9227 166.626 25.464V35H163.714V17.464H166.626V20.312Z" fill="black"/>
<path d="M22.55 62L19.68 58.82V62H18.77V55.03H19.68V58.26L22.56 55.03H23.71L20.55 58.52L23.74 62H22.55ZM29.7563 59.05C29.7563 59.2233 29.7463 59.4067 29.7263 59.6H25.3463C25.3797 60.14 25.563 60.5633 25.8963 60.87C26.2363 61.17 26.6463 61.32 27.1263 61.32C27.5197 61.32 27.8463 61.23 28.1063 61.05C28.373 60.8633 28.5597 60.6167 28.6663 60.31H29.6463C29.4997 60.8367 29.2063 61.2667 28.7663 61.6C28.3263 61.9267 27.7797 62.09 27.1263 62.09C26.6063 62.09 26.1397 61.9733 25.7263 61.74C25.3197 61.5067 24.9997 61.1767 24.7663 60.75C24.533 60.3167 24.4163 59.8167 24.4163 59.25C24.4163 58.6833 24.5297 58.1867 24.7563 57.76C24.983 57.3333 25.2997 57.0067 25.7063 56.78C26.1197 56.5467 26.593 56.43 27.1263 56.43C27.6463 56.43 28.1063 56.5433 28.5063 56.77C28.9063 56.9967 29.213 57.31 29.4263 57.71C29.6463 58.1033 29.7563 58.55 29.7563 59.05ZM28.8163 58.86C28.8163 58.5133 28.7397 58.2167 28.5863 57.97C28.433 57.7167 28.223 57.5267 27.9563 57.4C27.6963 57.2667 27.4063 57.2 27.0863 57.2C26.6263 57.2 26.233 57.3467 25.9063 57.64C25.5863 57.9333 25.403 58.34 25.3563 58.86H28.8163ZM35.9575 59.05C35.9575 59.2233 35.9475 59.4067 35.9275 59.6H31.5475C31.5808 60.14 31.7642 60.5633 32.0975 60.87C32.4375 61.17 32.8475 61.32 33.3275 61.32C33.7208 61.32 34.0475 61.23 34.3075 61.05C34.5742 60.8633 34.7608 60.6167 34.8675 60.31H35.8475C35.7008 60.8367 35.4075 61.2667 34.9675 61.6C34.5275 61.9267 33.9808 62.09 33.3275 62.09C32.8075 62.09 32.3408 61.9733 31.9275 61.74C31.5208 61.5067 31.2008 61.1767 30.9675 60.75C30.7342 60.3167 30.6175 59.8167 30.6175 59.25C30.6175 58.6833 30.7308 58.1867 30.9575 57.76C31.1842 57.3333 31.5008 57.0067 31.9075 56.78C32.3208 56.5467 32.7942 56.43 33.3275 56.43C33.8475 56.43 34.3075 56.5433 34.7075 56.77C35.1075 56.9967 35.4142 57.31 35.6275 57.71C35.8475 58.1033 35.9575 58.55 35.9575 59.05ZM35.0175 58.86C35.0175 58.5133 34.9408 58.2167 34.7875 57.97C34.6342 57.7167 34.4242 57.5267 34.1575 57.4C33.8975 57.2667 33.6075 57.2 33.2875 57.2C32.8275 57.2 32.4342 57.3467 32.1075 57.64C31.7875 57.9333 31.6042 58.34 31.5575 58.86H35.0175ZM38.0687 57.53C38.2487 57.2167 38.5153 56.9567 38.8687 56.75C39.2287 56.5367 39.6453 56.43 40.1187 56.43C40.6053 56.43 41.0453 56.5467 41.4387 56.78C41.8387 57.0133 42.152 57.3433 42.3787 57.77C42.6053 58.19 42.7187 58.68 42.7187 59.24C42.7187 59.7933 42.6053 60.2867 42.3787 60.72C42.152 61.1533 41.8387 61.49 41.4387 61.73C41.0453 61.97 40.6053 62.09 40.1187 62.09C39.652 62.09 39.2387 61.9867 38.8787 61.78C38.5253 61.5667 38.2553 61.3033 38.0687 60.99V64.6H37.1587V56.52H38.0687V57.53ZM41.7887 59.24C41.7887 58.8267 41.7053 58.4667 41.5387 58.16C41.372 57.8533 41.1453 57.62 40.8587 57.46C40.5787 57.3 40.2687 57.22 39.9287 57.22C39.5953 57.22 39.2853 57.3033 38.9987 57.47C38.7187 57.63 38.492 57.8667 38.3187 58.18C38.152 58.4867 38.0687 58.8433 38.0687 59.25C38.0687 59.6633 38.152 60.0267 38.3187 60.34C38.492 60.6467 38.7187 60.8833 38.9987 61.05C39.2853 61.21 39.5953 61.29 39.9287 61.29C40.2687 61.29 40.5787 61.21 40.8587 61.05C41.1453 60.8833 41.372 60.6467 41.5387 60.34C41.7053 60.0267 41.7887 59.66 41.7887 59.24ZM47.6925 57.27V60.5C47.6925 60.7667 47.7492 60.9567 47.8625 61.07C47.9758 61.1767 48.1725 61.23 48.4525 61.23H49.1225V62H48.3025C47.7958 62 47.4158 61.8833 47.1625 61.65C46.9092 61.4167 46.7825 61.0333 46.7825 60.5V57.27H46.0725V56.52H46.7825V55.14H47.6925V56.52H49.1225V57.27H47.6925ZM52.9451 56.42C53.3584 56.42 53.7317 56.51 54.0651 56.69C54.3984 56.8633 54.6584 57.1267 54.8451 57.48C55.0384 57.8333 55.1351 58.2633 55.1351 58.77V62H54.2351V58.9C54.2351 58.3533 54.0984 57.9367 53.8251 57.65C53.5517 57.3567 53.1784 57.21 52.7051 57.21C52.2251 57.21 51.8417 57.36 51.5551 57.66C51.2751 57.96 51.1351 58.3967 51.1351 58.97V62H50.2251V54.6H51.1351V57.3C51.3151 57.02 51.5617 56.8033 51.8751 56.65C52.1951 56.4967 52.5517 56.42 52.9451 56.42ZM57.0916 55.63C56.9182 55.63 56.7716 55.57 56.6516 55.45C56.5316 55.33 56.4716 55.1833 56.4716 55.01C56.4716 54.8367 56.5316 54.69 56.6516 54.57C56.7716 54.45 56.9182 54.39 57.0916 54.39C57.2582 54.39 57.3982 54.45 57.5116 54.57C57.6316 54.69 57.6916 54.8367 57.6916 55.01C57.6916 55.1833 57.6316 55.33 57.5116 55.45C57.3982 55.57 57.2582 55.63 57.0916 55.63ZM57.5316 56.52V62H56.6216V56.52H57.5316ZM61.7525 56.42C62.4192 56.42 62.9592 56.6233 63.3725 57.03C63.7858 57.43 63.9925 58.01 63.9925 58.77V62H63.0925V58.9C63.0925 58.3533 62.9558 57.9367 62.6825 57.65C62.4092 57.3567 62.0358 57.21 61.5625 57.21C61.0825 57.21 60.6992 57.36 60.4125 57.66C60.1325 57.96 59.9925 58.3967 59.9925 58.97V62H59.0825V56.52H59.9925V57.3C60.1725 57.02 60.4158 56.8033 60.7225 56.65C61.0358 56.4967 61.3792 56.42 61.7525 56.42ZM67.739 56.43C68.2123 56.43 68.6257 56.5333 68.979 56.74C69.339 56.9467 69.6057 57.2067 69.779 57.52V56.52H70.699V62.12C70.699 62.62 70.5923 63.0633 70.379 63.45C70.1657 63.8433 69.859 64.15 69.459 64.37C69.0657 64.59 68.6057 64.7 68.079 64.7C67.359 64.7 66.759 64.53 66.279 64.19C65.799 63.85 65.5157 63.3867 65.429 62.8H66.329C66.429 63.1333 66.6357 63.4 66.949 63.6C67.2623 63.8067 67.639 63.91 68.079 63.91C68.579 63.91 68.9857 63.7533 69.299 63.44C69.619 63.1267 69.779 62.6867 69.779 62.12V60.97C69.599 61.29 69.3323 61.5567 68.979 61.77C68.6257 61.9833 68.2123 62.09 67.739 62.09C67.2523 62.09 66.809 61.97 66.409 61.73C66.0157 61.49 65.7057 61.1533 65.479 60.72C65.2523 60.2867 65.139 59.7933 65.139 59.24C65.139 58.68 65.2523 58.19 65.479 57.77C65.7057 57.3433 66.0157 57.0133 66.409 56.78C66.809 56.5467 67.2523 56.43 67.739 56.43ZM69.779 59.25C69.779 58.8367 69.6957 58.4767 69.529 58.17C69.3623 57.8633 69.1357 57.63 68.849 57.47C68.569 57.3033 68.259 57.22 67.919 57.22C67.579 57.22 67.269 57.3 66.989 57.46C66.709 57.62 66.4857 57.8533 66.319 58.16C66.1523 58.4667 66.069 58.8267 66.069 59.24C66.069 59.66 66.1523 60.0267 66.319 60.34C66.4857 60.6467 66.709 60.8833 66.989 61.05C67.269 61.21 67.579 61.29 67.919 61.29C68.259 61.29 68.569 61.21 68.849 61.05C69.1357 60.8833 69.3623 60.6467 69.529 60.34C69.6957 60.0267 69.779 59.6633 69.779 59.25ZM74.1768 62.09C73.7568 62.09 73.3801 62.02 73.0468 61.88C72.7135 61.7333 72.4501 61.5333 72.2568 61.28C72.0635 61.02 71.9568 60.7233 71.9368 60.39H72.8768C72.9035 60.6633 73.0301 60.8867 73.2568 61.06C73.4901 61.2333 73.7935 61.32 74.1668 61.32C74.5135 61.32 74.7868 61.2433 74.9868 61.09C75.1868 60.9367 75.2868 60.7433 75.2868 60.51C75.2868 60.27 75.1801 60.0933 74.9668 59.98C74.7535 59.86 74.4235 59.7433 73.9768 59.63C73.5701 59.5233 73.2368 59.4167 72.9768 59.31C72.7235 59.1967 72.5035 59.0333 72.3168 58.82C72.1368 58.6 72.0468 58.3133 72.0468 57.96C72.0468 57.68 72.1301 57.4233 72.2968 57.19C72.4635 56.9567 72.7001 56.7733 73.0068 56.64C73.3135 56.5 73.6635 56.43 74.0568 56.43C74.6635 56.43 75.1535 56.5833 75.5268 56.89C75.9001 57.1967 76.1001 57.6167 76.1268 58.15H75.2168C75.1968 57.8633 75.0801 57.6333 74.8668 57.46C74.6601 57.2867 74.3801 57.2 74.0268 57.2C73.7001 57.2 73.4401 57.27 73.2468 57.41C73.0535 57.55 72.9568 57.7333 72.9568 57.96C72.9568 58.14 73.0135 58.29 73.1268 58.41C73.2468 58.5233 73.3935 58.6167 73.5668 58.69C73.7468 58.7567 73.9935 58.8333 74.3068 58.92C74.7001 59.0267 75.0201 59.1333 75.2668 59.24C75.5135 59.34 75.7235 59.4933 75.8968 59.7C76.0768 59.9067 76.1701 60.1767 76.1768 60.51C76.1768 60.81 76.0935 61.08 75.9268 61.32C75.7601 61.56 75.5235 61.75 75.2168 61.89C74.9168 62.0233 74.5701 62.09 74.1768 62.09Z" fill="white"/>
</svg>
