<svg width="100" height="100" viewBox="0 0 100 100" fill="none" xmlns="http://www.w3.org/2000/svg">
<path d="M81.3789 83H68.8105V38C68.8105 37.1211 68.6348 36.3008 68.2832 35.5391C67.9609 34.7773 67.5068 34.1182 66.9209 33.5615C66.3643 32.9756 65.7051 32.5215 64.9434 32.1992C64.1816 31.877 63.3613 31.7158 62.4824 31.7158C61.6035 31.7158 60.7832 31.877 60.0215 32.1992C59.2598 32.5215 58.5859 32.9756 58 33.5615C57.4434 34.1182 57.0039 34.7773 56.6816 35.5391C56.3594 36.3008 56.1982 37.1211 56.1982 38V83H43.5859V38C43.5859 37.1211 43.4248 36.3008 43.1025 35.5391C42.7803 34.7773 42.3262 34.1182 41.7402 33.5615C41.1836 32.9756 40.5244 32.5215 39.7627 32.1992C39.001 31.877 38.1807 31.7158 37.3018 31.7158C36.4229 31.7158 35.6025 31.877 34.8408 32.1992C34.0791 32.5215 33.4053 32.9756 32.8193 33.5615C32.2627 34.1182 31.8232 34.7773 31.501 35.5391C31.1787 36.3008 31.0176 37.1211 31.0176 38V83H18.4053V38C18.4053 35.3926 18.8887 32.9463 19.8555 30.6611C20.8516 28.3467 22.1992 26.3398 23.8984 24.6406C25.627 22.9121 27.6338 21.5645 29.9189 20.5977C32.2334 19.6016 34.6943 19.1035 37.3018 19.1035C39.6455 19.1035 41.9014 19.5283 44.0693 20.3779C46.2373 21.1982 48.1855 22.3994 49.9141 23.9814C51.6426 22.3994 53.5762 21.1982 55.7148 20.3779C57.8828 19.5283 60.1387 19.1035 62.4824 19.1035C65.0898 19.1035 67.5361 19.6016 69.8213 20.5977C72.1357 21.5645 74.1426 22.9121 75.8418 24.6406C77.5703 26.3398 78.918 28.3467 79.8848 30.6611C80.8809 32.9463 81.3789 35.3926 81.3789 38V83Z" fill="#E01E5A"/>
</svg>
